g key
v -0.03299381 -0.008833365 0.03100183
v -0.02657024 0.009822706 0.02657211
v 0.02657112 0.009822706 0.02657211
v 0.03299173 -0.008833366 0.03100183
v 0.03299173 -0.008833366 0.03100183
v 0.02657112 0.009822706 0.02657211
v 0.02657112 0.009822706 -0.02657171
v 0.03299347 -0.008833346 -0.03276144
v 0.03299347 -0.008833346 -0.03276144
v 0.02657112 0.009822706 -0.02657171
v -0.02657024 0.009822706 -0.02657171
v -0.03299519 -0.008833346 -0.03276144
v -0.03299519 -0.008833346 -0.03276144
v -0.02657024 0.009822706 -0.02657171
v -0.02657024 0.009822706 0.02657211
v -0.03299381 -0.008833365 0.03100183
v 0.02338978 0.01227812 0.02338875
v -0.02338888 0.01227812 0.02338875
v -0.02338888 0.01227812 -0.02338845
v 0.02338978 0.01227812 -0.02338845
v -0.02657024 0.009822706 0.02657211
v -0.02657024 0.009822706 -0.02657171
v 0.02657112 0.009822706 0.02657211
v -0.02657024 0.009822706 0.02657211
v 0.02657112 0.009822706 -0.02657171
v 0.02657112 0.009822706 0.02657211
v -0.02657024 0.009822706 -0.02657171
v 0.02657112 0.009822706 -0.02657171
vt 0 0
vt 0.1581451 0.1571028
vt 0.8327203 0.1571028
vt 1 0
vt 1 0
vt 0.8327203 0.1571028
vt 0.8327203 0.8374759
vt 1 1
vt 1 1
vt 0.8327203 0.8374759
vt 0.1581451 0.8374759
vt 0 1
vt 0 1
vt 0.1581451 0.8374759
vt 0.1581451 0.1571028
vt 0 0
vt 0.7864799 0.2051387
vt 0.205945 0.2051387
vt 0.205945 0.7891124
vt 0.7864799 0.7891124
vt 0.1581451 0.1571028
vt 0.1581451 0.8374759
vt 0.8327203 0.1571028
vt 0.1581451 0.1571028
vt 0.8327203 0.8374759
vt 0.8327203 0.1571028
vt 0.1581451 0.8374759
vt 0.8327203 0.8374759
vn 0 0.2310182 0.9729494
vn 0 0.2310182 0.9729494
vn 0 0.2310182 0.9729494
vn 0 0.2310183 0.9729494
vn 0.9455549 0.3254626 1.409709E-05
vn 0.9455549 0.3254626 1.409709E-05
vn 0.9455549 0.3254626 1.409709E-05
vn 0.9455549 0.3254626 1.409709E-05
vn 0 0.3149019 -0.9491243
vn 0 0.3149019 -0.9491243
vn 0 0.3149019 -0.9491243
vn 0 0.3149018 -0.9491243
vn -0.9455115 0.3255886 1.123879E-05
vn -0.9455116 0.3255886 1.123879E-05
vn -0.9455116 0.3255885 1.123879E-05
vn -0.9455116 0.3255886 1.123879E-05
vn 0.06595317 0.9956417 0.06593778
vn -0.06595305 0.9956417 0.06593783
vn -0.06595279 0.9956417 -0.06593829
vn 0.06595292 0.9956417 -0.06593823
vn -0.6109934 0.7916356 0
vn -0.6109935 0.7916356 0
vn 0 0.7918203 0.6107541
vn 0 0.7918203 0.6107541
vn 0.6109964 0.7916334 0
vn 0.6109964 0.7916334 0
vn 0 0.7918112 -0.6107659
vn 0 0.7918112 -0.6107658
g key_0
f 3/3/3 2/2/2 1/1/1
f 4/4/4 3/3/3 1/1/1
f 7/7/7 6/6/6 5/5/5
f 8/8/8 7/7/7 5/5/5
f 11/11/11 10/10/10 9/9/9
f 12/12/12 11/11/11 9/9/9
f 15/15/15 14/14/14 13/13/13
f 16/16/16 15/15/15 13/13/13
f 19/19/19 18/18/18 17/17/17
f 20/20/20 19/19/19 17/17/17
f 18/18/18 19/19/19 21/21/21
f 19/19/19 22/22/22 21/21/21
f 23/23/23 17/17/17 18/18/18
f 24/24/24 23/23/23 18/18/18
f 25/25/25 20/20/20 17/17/17
f 26/26/26 25/25/25 17/17/17
f 27/27/27 19/19/19 20/20/20
f 28/28/28 27/27/27 20/20/20
